<mxfile host="app.diagrams.net" agent="Mozilla/5.0 (Windows NT 10.0; Win64; x64) AppleWebKit/537.36 (KHTML, like Gecko) Chrome/129.0.0.0 Safari/537.36" version="24.8.4">
  <diagram id="C5RBs43oDa-KdzZeNtuy" name="Page-1">
    <mxGraphModel dx="794" dy="379" grid="1" gridSize="10" guides="1" tooltips="1" connect="1" arrows="1" fold="1" page="1" pageScale="1" pageWidth="827" pageHeight="1169" math="0" shadow="0">
      <root>
        <mxCell id="WIyWlLk6GJQsqaUBKTNV-0" />
        <mxCell id="WIyWlLk6GJQsqaUBKTNV-1" parent="WIyWlLk6GJQsqaUBKTNV-0" />
        <mxCell id="vu7274_m8zK-uV0ClqTG-5" value="NhanVien" style="swimlane;fontStyle=1;align=center;verticalAlign=top;childLayout=stackLayout;horizontal=1;startSize=26;horizontalStack=0;resizeParent=1;resizeParentMax=0;resizeLast=0;collapsible=1;marginBottom=0;whiteSpace=wrap;html=1;" vertex="1" parent="WIyWlLk6GJQsqaUBKTNV-1">
          <mxGeometry x="398" y="190" width="340" height="180" as="geometry" />
        </mxCell>
        <mxCell id="vu7274_m8zK-uV0ClqTG-6" value="- Maso: &lt;span class=&quot;hljs-built_in&quot;&gt;string&lt;/span&gt;&lt;br&gt;- Ten: &lt;span class=&quot;hljs-built_in&quot;&gt;string&lt;/span&gt;&lt;br&gt;- Luongcoban: &lt;span class=&quot;hljs-type&quot;&gt;unsigned&lt;/span&gt; &lt;span class=&quot;hljs-type&quot;&gt;long&lt;/span&gt; &lt;span class=&quot;hljs-type&quot;&gt;long&lt;/span&gt;" style="text;strokeColor=none;fillColor=none;align=left;verticalAlign=top;spacingLeft=4;spacingRight=4;overflow=hidden;rotatable=0;points=[[0,0.5],[1,0.5]];portConstraint=eastwest;whiteSpace=wrap;html=1;" vertex="1" parent="vu7274_m8zK-uV0ClqTG-5">
          <mxGeometry y="26" width="340" height="54" as="geometry" />
        </mxCell>
        <mxCell id="vu7274_m8zK-uV0ClqTG-7" value="" style="line;strokeWidth=1;fillColor=none;align=left;verticalAlign=middle;spacingTop=-1;spacingLeft=3;spacingRight=3;rotatable=0;labelPosition=right;points=[];portConstraint=eastwest;strokeColor=inherit;" vertex="1" parent="vu7274_m8zK-uV0ClqTG-5">
          <mxGeometry y="80" width="340" height="8" as="geometry" />
        </mxCell>
        <mxCell id="vu7274_m8zK-uV0ClqTG-8" value="+ NhanVien()&lt;br&gt;+ NhanVien(ma: &lt;span class=&quot;hljs-built_in&quot;&gt;string&lt;/span&gt;, ten: &lt;span class=&quot;hljs-built_in&quot;&gt;string&lt;/span&gt;, tien: &lt;span class=&quot;hljs-type&quot;&gt;unsigned&lt;/span&gt; &lt;span class=&quot;hljs-type&quot;&gt;long&lt;/span&gt; &lt;span class=&quot;hljs-type&quot;&gt;long&lt;/span&gt;)&lt;br&gt;+ Nhap(): &lt;span class=&quot;hljs-type&quot;&gt;void&lt;/span&gt;&lt;br&gt;+ Xuat(): &lt;span class=&quot;hljs-type&quot;&gt;void&lt;/span&gt;&lt;br&gt;&lt;i&gt;+ TienThuong(): &lt;span class=&quot;hljs-type&quot;&gt;long&lt;/span&gt;&amp;nbsp;long&lt;/i&gt;" style="text;strokeColor=none;fillColor=none;align=left;verticalAlign=top;spacingLeft=4;spacingRight=4;overflow=hidden;rotatable=0;points=[[0,0.5],[1,0.5]];portConstraint=eastwest;whiteSpace=wrap;html=1;" vertex="1" parent="vu7274_m8zK-uV0ClqTG-5">
          <mxGeometry y="88" width="340" height="92" as="geometry" />
        </mxCell>
        <mxCell id="vu7274_m8zK-uV0ClqTG-9" value="QuanLi" style="swimlane;fontStyle=1;align=center;verticalAlign=top;childLayout=stackLayout;horizontal=1;startSize=26;horizontalStack=0;resizeParent=1;resizeParentMax=0;resizeLast=0;collapsible=1;marginBottom=0;whiteSpace=wrap;html=1;" vertex="1" parent="WIyWlLk6GJQsqaUBKTNV-1">
          <mxGeometry x="623" y="509" width="240" height="150" as="geometry" />
        </mxCell>
        <mxCell id="vu7274_m8zK-uV0ClqTG-10" value="- ti_le_thuong: float" style="text;strokeColor=none;fillColor=none;align=left;verticalAlign=top;spacingLeft=4;spacingRight=4;overflow=hidden;rotatable=0;points=[[0,0.5],[1,0.5]];portConstraint=eastwest;whiteSpace=wrap;html=1;" vertex="1" parent="vu7274_m8zK-uV0ClqTG-9">
          <mxGeometry y="26" width="240" height="24" as="geometry" />
        </mxCell>
        <mxCell id="vu7274_m8zK-uV0ClqTG-11" value="" style="line;strokeWidth=1;fillColor=none;align=left;verticalAlign=middle;spacingTop=-1;spacingLeft=3;spacingRight=3;rotatable=0;labelPosition=right;points=[];portConstraint=eastwest;strokeColor=inherit;" vertex="1" parent="vu7274_m8zK-uV0ClqTG-9">
          <mxGeometry y="50" width="240" height="8" as="geometry" />
        </mxCell>
        <mxCell id="vu7274_m8zK-uV0ClqTG-12" value="+ QuanLi()&lt;br&gt;+ Nhap(): void&lt;br&gt;+ Xuat(): void&lt;br&gt;+ TienThuong(): long long&amp;nbsp;" style="text;strokeColor=none;fillColor=none;align=left;verticalAlign=top;spacingLeft=4;spacingRight=4;overflow=hidden;rotatable=0;points=[[0,0.5],[1,0.5]];portConstraint=eastwest;whiteSpace=wrap;html=1;" vertex="1" parent="vu7274_m8zK-uV0ClqTG-9">
          <mxGeometry y="58" width="240" height="92" as="geometry" />
        </mxCell>
        <mxCell id="vu7274_m8zK-uV0ClqTG-13" value="KySu" style="swimlane;fontStyle=1;align=center;verticalAlign=top;childLayout=stackLayout;horizontal=1;startSize=26;horizontalStack=0;resizeParent=1;resizeParentMax=0;resizeLast=0;collapsible=1;marginBottom=0;whiteSpace=wrap;html=1;" vertex="1" parent="WIyWlLk6GJQsqaUBKTNV-1">
          <mxGeometry x="240" y="507" width="230" height="150" as="geometry" />
        </mxCell>
        <mxCell id="vu7274_m8zK-uV0ClqTG-14" value="- so_gio_lam_them: float" style="text;strokeColor=none;fillColor=none;align=left;verticalAlign=top;spacingLeft=4;spacingRight=4;overflow=hidden;rotatable=0;points=[[0,0.5],[1,0.5]];portConstraint=eastwest;whiteSpace=wrap;html=1;" vertex="1" parent="vu7274_m8zK-uV0ClqTG-13">
          <mxGeometry y="26" width="230" height="24" as="geometry" />
        </mxCell>
        <mxCell id="vu7274_m8zK-uV0ClqTG-15" value="" style="line;strokeWidth=1;fillColor=none;align=left;verticalAlign=middle;spacingTop=-1;spacingLeft=3;spacingRight=3;rotatable=0;labelPosition=right;points=[];portConstraint=eastwest;strokeColor=inherit;" vertex="1" parent="vu7274_m8zK-uV0ClqTG-13">
          <mxGeometry y="50" width="230" height="8" as="geometry" />
        </mxCell>
        <mxCell id="vu7274_m8zK-uV0ClqTG-16" value="+ KySu()&lt;br&gt;+ Nhap(): void&lt;br&gt;+ Xuat(): void&lt;br&gt;+ TienThuong(): long long&amp;nbsp;" style="text;strokeColor=none;fillColor=none;align=left;verticalAlign=top;spacingLeft=4;spacingRight=4;overflow=hidden;rotatable=0;points=[[0,0.5],[1,0.5]];portConstraint=eastwest;whiteSpace=wrap;html=1;" vertex="1" parent="vu7274_m8zK-uV0ClqTG-13">
          <mxGeometry y="58" width="230" height="92" as="geometry" />
        </mxCell>
        <mxCell id="vu7274_m8zK-uV0ClqTG-17" value="" style="endArrow=block;endSize=16;endFill=0;html=1;rounded=0;entryX=0.5;entryY=1;entryDx=0;entryDy=0;" edge="1" parent="WIyWlLk6GJQsqaUBKTNV-1">
          <mxGeometry width="160" relative="1" as="geometry">
            <mxPoint x="555" y="440" as="sourcePoint" />
            <mxPoint x="555" y="370" as="targetPoint" />
          </mxGeometry>
        </mxCell>
        <mxCell id="vu7274_m8zK-uV0ClqTG-21" value="" style="endArrow=none;html=1;rounded=0;exitX=0.481;exitY=0.011;exitDx=0;exitDy=0;exitPerimeter=0;" edge="1" parent="WIyWlLk6GJQsqaUBKTNV-1">
          <mxGeometry width="50" height="50" relative="1" as="geometry">
            <mxPoint x="340.2499999999999" y="507.65" as="sourcePoint" />
            <mxPoint x="340" y="440" as="targetPoint" />
            <Array as="points">
              <mxPoint x="340" y="440" />
              <mxPoint x="800" y="440" />
            </Array>
          </mxGeometry>
        </mxCell>
        <mxCell id="vu7274_m8zK-uV0ClqTG-22" value="" style="endArrow=none;html=1;rounded=0;" edge="1" parent="WIyWlLk6GJQsqaUBKTNV-1">
          <mxGeometry width="50" height="50" relative="1" as="geometry">
            <mxPoint x="799" y="510" as="sourcePoint" />
            <mxPoint x="799" y="440" as="targetPoint" />
          </mxGeometry>
        </mxCell>
      </root>
    </mxGraphModel>
  </diagram>
</mxfile>
